<svg enable-background="new 0 0 512.004 512.004" height="512" viewBox="0 0 512.004 512.004" width="512" xmlns="http://www.w3.org/2000/svg"><path d="m414.336 210.564-23.336 11.571c0-183.907.136-174.839-.278-176.982-1.351-7.018-7.519-12.151-14.722-12.151-1.694 0-359.814-.003-361.095.005-8.355.053-14.905 6.882-14.905 14.995v270c0 8.284 6.716 15 15 15h166v21c0 16.7 11.76 30.697 27.432 34.167l-12.228 73.368c-1.524 9.14 5.536 17.466 14.796 17.466h60c7.271 0 13.496-5.215 14.769-12.375l13.55-76.22 115.018 57.033c9.934 4.927 21.664-2.306 21.664-13.438v-210c-.001-11.125-11.715-18.376-21.665-13.439zm-88.107-147.562-131.206 86.988-130.481-86.988zm-296.229 13.028 156.68 104.453c5.027 3.351 11.574 3.36 16.609.021l157.711-104.56v161.067l-64.515 31.991h-80.485c-18.963 0-34.442 15.163-34.975 34h-151.025zm186 282.972c-2.757 0-5-2.243-5-5v-50c0-2.757 2.243-5 5-5h69v60zm12.707 90 10-60h30.391l-10.666 60zm177.293-39.181-91-45.124v-71.391l91-45.124z"/><path d="m487.012 282.744 16-7c7.59-3.32 11.051-12.165 7.73-19.754-3.32-7.589-12.165-11.053-19.754-7.73l-16 7c-7.59 3.32-11.051 12.165-7.73 19.754 3.323 7.595 12.172 11.05 19.754 7.73z"/><path d="m503.012 382.26-16-7c-7.59-3.32-16.434.14-19.754 7.73-3.321 7.59.14 16.434 7.73 19.754l16 7c7.589 3.321 16.435-.141 19.754-7.73 3.321-7.59-.14-16.434-7.73-19.754z"/><path d="m497 314.002h-16c-8.284 0-15 6.716-15 15s6.716 15 15 15h16c8.284 0 15-6.716 15-15s-6.716-15-15-15z"/></svg>